# AST/ASF file generated using VICON BodyLanguage
# -----------------------------------------------
:version 1.10
:name VICON
:units
  mass 1.0
  length 0.45
  angle deg
:documentation
   .ast/.asf automatically generated from VICON data using
   VICON BodyBuilder and BodyLanguage model FoxedUp or BRILLIANT.MOD
:root
   order TX TY TZ RX RY RZ
   axis XYZ
   position 0 0 0  
   orientation 0 0 0 
:bonedata
  begin
     id 1 
     name lhipjoint
     direction 0.646657 -0.683706 0.338203 
     length 2.4948 
     axis 0 0 0  XYZ
  end
  begin
     id 2 
     name lfemur
     direction 0.34202 -0.939693 0  
     length 6.79491  
     axis 0 0 20  XYZ
    dof rx ry rz
    limits (-160.0 20.0)
           (-70.0 70.0)
           (-60.0 70.0)
  end
  begin
     id 3 
     name ltibia
     direction 0.34202 -0.939693 0   
     length 7.56807   
     axis 0 0 20   XYZ
    dof rx
    limits (-10.0 170.0)
  end
  begin
     id 4 
     name lfoot
     direction 0.0679796 -0.186772 0.980048   
     length 2.53018   
     axis -90 7.62852e-016 20   XYZ
    dof rx rz
    limits (-45.0 90.0)
           (-70.0 20.0)
  end
  begin
     id 5 
     name ltoes
     direction 1.53625e-011 -4.21881e-011 1   
     length 1.26912   
     axis -90 7.62852e-016 20   XYZ
    dof rx
    limits (-90.0 20.0)
  end
  begin
     id 6 
     name rhipjoint
     direction -0.618868 -0.704065 0.348274   
     length 2.42265  
     axis 0 0 0  XYZ 
  end
  begin
     id 7 
     name rfemur
     direction -0.34202 -0.939693 0   
     length 6.73814   
     axis 0 0 -20   XYZ
    dof rx ry rz
    limits (-160.0 20.0)
           (-70.0 70.0)
           (-70.0 60.0)
  end
  begin
     id 8 
     name rtibia
     direction -0.34202 -0.939693 0   
     length 7.66799   
     axis 0 0 -20   XYZ
    dof rx
    limits (-10.0 170.0)
 end
 begin
     id 9 
     name rfoot
     direction -0.0727352 -0.199838 0.977125   
     length 2.57224  
     axis -90 -7.62852e-016 -20   XYZ
    dof rx rz
    limits (-45.0 90.0)
           (-20.0 70.0)
  end
  begin
     id 10 
     name rtoes
     direction -1.53501e-011 -4.21858e-011 1   
     length 1.28858   
     axis -90 -7.62852e-016 -20   XYZ
    dof rx
    limits (-90.0 20.0)
  end
  begin
     id 11 
     name lowerback
     direction -0.0172471 0.995767 -0.0902851   
     length 2.20206   
     axis 0 0 0   XYZ
    dof rx ry rz
    limits (-20.0 45.0)
           (-30.0 30.0)
           (-30.0 30.0)
  end
  begin
     id 12 
     name upperback
     direction -0.000110737 0.999714 0.0239043   
     length 2.19523   
     axis 0 0 0   XYZ
    dof rx ry rz
    limits (-20.0 45.0)
           (-30.0 30.0)
           (-30.0 30.0)
  end
  begin
     id 13 
     name thorax
     direction 0.00704869 0.997783 0.0661741   
     length 2.21977   
     axis 0 0 0   XYZ
    dof rx ry rz
    limits (-20.0 45.0)
           (-30.0 30.0)
           (-30.0 30.0)
  end
  begin
     id 14 
     name lowerneck
     direction -0.00407501 0.995527 0.0943846   
     length 1.83142   
     axis 0 0 0   XYZ
    dof rx ry rz
    limits (-20.0 45.0)
           (-30.0 30.0)
           (-30.0 30.0)
  end
  begin
     id 15 
     name upperneck
     direction 0.0640586 0.986486 -0.150807   
     length 1.84616   
     axis 0 0 0   XYZ
    dof rx ry rz
    limits (-20.0 45.0)
           (-30.0 30.0)
           (-30.0 30.0)
  end
  begin
     id 16
     name head
     direction 0.0188017 0.99791 -0.0618239  
     length 1.85932  
     axis 0 0 0   XYZ
    dof rx ry rz
    limits (-20.0 45.0)
           (-30.0 30.0)
           (-30.0 30.0)
  end
  begin
     id 17 
     name lclavicle
     direction 0.976074 0.206905 0.066852  
     length 3.81043  
     axis 0 0 0   XYZ
    dof ry rz
    limits (-20.0 10.0)
           (0.0 20.0)
  end
  begin
     id 18 
     name lhumerus
     direction 1 -4.48971e-011 1.86916e-027   
     length 5.37587   
     axis 180 -30 -90   XYZ
    dof rx ry rz
    limits (-60.0 90.0)
           (-90.0 90.0)
           (-90.0 90.0)
  end
  begin
     id 19
     name lradius
     direction 1 -4.48968e-011 1.69187e-027   
     length 3.35977   
     axis 180 -30 -90   XYZ
    dof rx
    limits (-10.0 170.0)
  end
  begin
     id 20
     name lwrist
     direction 1 -4.48968e-011 5.8978e-027   
     length 1.67988   
     axis -3.27506e-015 90 90   XYZ
    dof ry
    limits (-180.0 0.0)
 end
  begin
     id 21 
     name lhand
     direction 1 -4.49028e-011 1.18071e-026   
     length 0.561859   
     axis -7.52654e-015 90 90   XYZ
    dof rx rz
    limits (-90.0 90.0)
           (-45.0 45.0)
  end
  begin
     id 22 
     name lfingers
     direction 1 -4.48927e-011 2.35758e-026   
     length 0.452985   
     axis -1.50534e-014 90 90   XYZ
    dof rx
    limits (0.0 90.0)
  end
  begin
     id 23
     name lthumb
     direction 0.707107 -6.34898e-011 0.707107   
     length 0.650399   
     axis -90 45 5.69224e-014   XYZ
    dof rx rz
    limits (-45.0 45.0)
           (-45.0 45.0)
  end
  begin
     id 24 
     name rclavicle
     direction -0.988403 0.151789 0.00439714   
     length 3.6942  
     axis 0 0 0   XYZ 
    dof ry rz
    limits (-10.0 20.0)
           (-20.0 0.0)
  end
  begin
     id 25 
     name rhumerus
     direction -1 -4.48978e-011 1.62495e-027  
     length 5.22819   
     axis 180 30 90   XYZ
    dof rx ry rz
    limits (-90.0 60.0)
           (-90.0 90.0)
           (-90.0 90.0)
  end
  begin
     id 26 
     name rradius
     direction -1 -4.48961e-011 3.47796e-027   
     length 3.40764   
     axis 180 30 90   XYZ
    dof rx
    limits (-10.0 170.0)
  end
  begin
     id 27 
     name rwrist
     direction -1 -4.48949e-011 5.89602e-027   
     length 1.70382   
     axis -3.27506e-015 -90 -90   XYZ
    dof ry
    limits (-180.0 0.0)
  end
  begin
     id 28
     name rhand
     direction -1 -4.48977e-011 1.17973e-026   
     length 0.583255   
     axis -7.52654e-015 -90 -90   XYZ
    dof rx rz
    limits (-90.0 90.0)
           (-45.0 45.0)
  end
  begin
     id 29
     name rfingers
     direction -1 -4.49099e-011 2.36408e-026   
     length 0.470235   
     axis -1.50534e-014 -90 -90   XYZ
    dof rx
    limits (0.0 90.0)
  end
  begin
     id 30
     name rthumb
     direction -0.707107 -6.35011e-011 0.707107   
     length 0.675167   
     axis -90 -45 -5.69224e-014   XYZ
    dof rx rz
    limits (-45.0 45.0)
           (-45.0 45.0)
  end
:hierarchy
  begin
    root lhipjoint rhipjoint lowerback
    lhipjoint lfemur
    lfemur ltibia
    ltibia lfoot
    lfoot ltoes
    rhipjoint rfemur
    rfemur rtibia
    rtibia rfoot
    rfoot rtoes
    lowerback upperback
    upperback thorax
    thorax lowerneck lclavicle rclavicle
    lowerneck upperneck
    upperneck head
    lclavicle lhumerus
    lhumerus lradius
    lradius lwrist
    lwrist lhand lthumb
    lhand lfingers
    rclavicle rhumerus
    rhumerus rradius
    rradius rwrist
    rwrist rhand rthumb
    rhand rfingers
  end

#!OML:ASF G:\JayActor3\Patient Classification 1\Patient 1\Session 2\male.ASF
:FULLY-SPECIFIED
:DEGREES
104
root 50.5554 16.5869 -7.73421 59.9825 -88.1255 -61.6126
lowerback 0.27661 0.264409 0.176045
upperback 2.39932 0.316694 0.610943
thorax 2.30112 0.145328 0.532775
lowerneck -9.58568 -3.06749 -3.03685
upperneck 5.94317 -4.52732 8.87843
head 3.61631 -1.92368 2.92804
rclavicle -1.25793e-015 1.3418e-015
rhumerus -34.0358 -7.93932 -84.5441
rradius 29.6867
rwrist -4.41291
rhand -24.1094 3.03536
rfingers 7.12502
rthumb 2.37172 -26.9312
lclavicle -1.25793e-015 1.3418e-015
lhumerus -29.5857 7.84295 85.325
lradius 26.4464
lwrist 9.18872
lhand -18.253 17.5376
lfingers 7.12502
lthumb 8.02615 47.3652
rfemur -8.79301 -1.52698 24.3025
rtibia 35.4511
rfoot -26.9343 -9.57452
rtoes 18.6237
lfemur -5.10266 3.92507 -19.3351
ltibia 27.4362
lfoot -17.4004 9.00652
ltoes -6.42555
105
root 50.5544 16.5869 -7.73393 59.8627 -88.1223 -61.494
lowerback 0.27064 0.264142 0.178866
upperback 2.39334 0.316434 0.611013
thorax 2.29834 0.145313 0.531271
lowerneck -9.57608 -3.06827 -3.03377
upperneck 5.93516 -4.52876 8.88264
head 3.61245 -1.92461 2.92886
rclavicle 1.80149e-016 -4.22417e-015
rhumerus -34.0517 -7.92151 -84.5356
rradius 29.6866
rwrist -4.4179
rhand -24.1138 3.0364
rfingers 7.12502
rthumb 2.3675 -26.9302
lclavicle 1.80149e-016 -4.22417e-015
lhumerus -29.6048 7.82566 85.3295
lradius 26.4513
lwrist 9.19902
lhand -18.2517 17.5397
lfingers 7.12502
lthumb 8.02739 47.3673
rfemur -8.78524 -1.53167 24.3013
rtibia 35.4482
rfoot -26.9391 -9.56873
rtoes 18.6281
lfemur -5.0988 3.93269 -19.3328
ltibia 27.4373
lfoot -17.4015 8.9927
ltoes -6.42085
106
root 50.5532 16.5868 -7.73365 59.7686 -88.118 -61.401
lowerback 0.264729 0.26426 0.18259
upperback 2.38578 0.316702 0.611542
thorax 2.2939 0.145588 0.529735
lowerneck -9.56192 -3.06907 -3.03237
upperneck 5.92861 -4.53044 8.88954
head 3.60839 -1.92565 2.93081
rclavicle 4.13099e-015 1.44119e-015
rhumerus -34.0701 -7.9057 -84.5262
rradius 29.6837
rwrist -4.4224
rhand -24.1215 3.03256
rfingers 7.12502
rthumb 2.36002 -26.9341
lclavicle 4.13099e-015 1.44119e-015
lhumerus -29.6256 7.81184 85.3321
lradius 26.4509
lwrist 9.20377
lhand -18.2432 17.5338
lfingers 7.12502
lthumb 8.03559 47.361
rfemur -8.77653 -1.53616 24.302
rtibia 35.4443
rfoot -26.9443 -9.56401
rtoes 18.6339
lfemur -5.09466 3.94154 -19.3287
ltibia 27.4394
lfoot -17.4043 8.97741
ltoes -6.42045
107
root 50.552 16.5869 -7.73331 59.6705 -88.1115 -61.3035
lowerback 0.257834 0.26464 0.188352
upperback 2.37665 0.317322 0.612453
thorax 2.28841 0.146087 0.527454
lowerneck -9.54703 -3.07012 -3.03219
upperneck 5.92796 -4.53285 8.89755
head 3.6061 -1.92692 2.93325
rclavicle 1.46914e-015 -2.78299e-015
rhumerus -34.0894 -7.89483 -84.5147
rradius 29.6751
rwrist -4.42242
rhand -24.1296 3.03076
rfingers 7.12502
rthumb 2.35218 -26.936
lclavicle 1.46914e-015 -2.78299e-015
lhumerus -29.649 7.78844 85.3372
lradius 26.452
lwrist 9.21977
lhand -18.2355 17.5376
lfingers 7.12502
lthumb 8.04309 47.3645
rfemur -8.76783 -1.54314 24.3041
rtibia 35.4394
rfoot -26.9474 -9.56027
rtoes 18.6333
lfemur -5.09095 3.94591 -19.3236
ltibia 27.4423
lfoot -17.4108 8.96276
ltoes -6.39786
108
root 50.5506 16.5868 -7.73291 59.6288 -88.1046 -61.2612
lowerback 0.247604 0.265323 0.196438
upperback 2.36733 0.31831 0.61352
thorax 2.28461 0.146819 0.524055
lowerneck -9.53471 -3.0711 -3.03121
upperneck 5.93207 -4.53545 8.90397
head 3.60562 -1.92815 2.93502
rclavicle -1.51263e-015 -2.5345e-015
rhumerus -34.1068 -7.8877 -84.5026
rradius 29.6616
rwrist -4.41841
rhand -24.1373 3.03174
rfingers 7.12502
rthumb 2.34476 -26.9351
lclavicle -1.51263e-015 -2.5345e-015
lhumerus -29.676 7.75529 85.345
lradius 26.4602
lwrist 9.24735
lhand -18.2246 17.5564
lfingers 7.12502
lthumb 8.05354 47.3829
rfemur -8.76005 -1.55251 24.3069
rtibia 35.4337
rfoot -26.9477 -9.55668
rtoes 18.6248
lfemur -5.088 3.95004 -19.3178
ltibia 27.4454
lfoot -17.4179 8.951
ltoes -6.37794
109
root 50.5491 16.5868 -7.73241 59.6316 -88.0978 -61.2607
lowerback 0.232836 0.265691 0.205844
upperback 2.35783 0.318845 0.614997
thorax 2.28319 0.14735 0.520352
lowerneck -9.52389 -3.07051 -3.02819
upperneck 5.93783 -4.53582 8.90554
head 3.60558 -1.92836 2.93509
rclavicle -3.72721e-016 5.96354e-016
rhumerus -34.12 -7.88402 -84.4895
rradius 29.6438
rwrist -4.41058
rhand -24.1434 3.02776
rfingers 7.12502
rthumb 2.33885 -26.9392
lclavicle -3.72721e-016 5.96354e-016
lhumerus -29.7019 7.72402 85.3526
lradius 26.4687
lwrist 9.28079
lhand -18.2155 17.5767
lfingers 7.12502
lthumb 8.06237 47.4029
rfemur -8.75469 -1.56323 24.3096
rtibia 35.4274
rfoot -26.9446 -9.55436
rtoes 18.6037
lfemur -5.0872 3.95278 -19.3126
ltibia 27.4477
lfoot -17.4251 8.9438
ltoes -6.35721
